<mxfile host="app.diagrams.net" agent="Mozilla/5.0 (Windows NT 10.0; Win64; x64) AppleWebKit/537.36 (KHTML, like Gecko) Chrome/128.0.0.0 Safari/537.36 Edg/128.0.0.0" version="24.7.14">
  <diagram name="Page-1" id="j5sgUVIeyLGk6w9QnOcV">
    <mxGraphModel dx="1253" dy="651" grid="1" gridSize="10" guides="1" tooltips="1" connect="1" arrows="1" fold="1" page="1" pageScale="1" pageWidth="1654" pageHeight="2336" math="0" shadow="0">
      <root>
        <mxCell id="0" />
        <mxCell id="1" parent="0" />
        <mxCell id="tATamW5z8YuREtFlP0gz-1" value="Thủ thư" style="shape=umlActor;verticalLabelPosition=bottom;verticalAlign=top;html=1;" vertex="1" parent="1">
          <mxGeometry x="70" y="135" width="30" height="60" as="geometry" />
        </mxCell>
        <mxCell id="tATamW5z8YuREtFlP0gz-2" value="Người đọc" style="shape=umlActor;verticalLabelPosition=bottom;verticalAlign=top;html=1;" vertex="1" parent="1">
          <mxGeometry x="70" y="550" width="30" height="60" as="geometry" />
        </mxCell>
        <mxCell id="tATamW5z8YuREtFlP0gz-3" value="Admin" style="shape=umlActor;verticalLabelPosition=bottom;verticalAlign=top;html=1;" vertex="1" parent="1">
          <mxGeometry x="910" y="120" width="30" height="60" as="geometry" />
        </mxCell>
        <mxCell id="tATamW5z8YuREtFlP0gz-23" style="rounded=0;orthogonalLoop=1;jettySize=auto;html=1;entryX=0;entryY=0.5;entryDx=0;entryDy=0;endArrow=classic;endFill=1;exitX=1;exitY=0.5;exitDx=0;exitDy=0;" edge="1" parent="1" source="tATamW5z8YuREtFlP0gz-4" target="tATamW5z8YuREtFlP0gz-11">
          <mxGeometry relative="1" as="geometry">
            <mxPoint x="570" y="130" as="targetPoint" />
          </mxGeometry>
        </mxCell>
        <mxCell id="tATamW5z8YuREtFlP0gz-4" value="Quản lý kho sách" style="ellipse;whiteSpace=wrap;html=1;" vertex="1" parent="1">
          <mxGeometry x="270" y="40" width="140" height="70" as="geometry" />
        </mxCell>
        <mxCell id="tATamW5z8YuREtFlP0gz-24" style="rounded=0;orthogonalLoop=1;jettySize=auto;html=1;entryX=0;entryY=0.5;entryDx=0;entryDy=0;endArrow=classic;endFill=1;" edge="1" parent="1" source="tATamW5z8YuREtFlP0gz-5" target="tATamW5z8YuREtFlP0gz-11">
          <mxGeometry relative="1" as="geometry" />
        </mxCell>
        <mxCell id="tATamW5z8YuREtFlP0gz-5" value="Quản lý độc giả" style="ellipse;whiteSpace=wrap;html=1;" vertex="1" parent="1">
          <mxGeometry x="270" y="130" width="140" height="70" as="geometry" />
        </mxCell>
        <mxCell id="tATamW5z8YuREtFlP0gz-25" style="rounded=0;orthogonalLoop=1;jettySize=auto;html=1;entryX=0;entryY=0.5;entryDx=0;entryDy=0;endArrow=classic;endFill=1;exitX=1;exitY=0.5;exitDx=0;exitDy=0;" edge="1" parent="1" source="tATamW5z8YuREtFlP0gz-6" target="tATamW5z8YuREtFlP0gz-11">
          <mxGeometry relative="1" as="geometry" />
        </mxCell>
        <mxCell id="tATamW5z8YuREtFlP0gz-6" value="Quản lý mượn trả" style="ellipse;whiteSpace=wrap;html=1;" vertex="1" parent="1">
          <mxGeometry x="270" y="220" width="140" height="70" as="geometry" />
        </mxCell>
        <mxCell id="tATamW5z8YuREtFlP0gz-7" value="Thống kê báo cáo" style="ellipse;whiteSpace=wrap;html=1;" vertex="1" parent="1">
          <mxGeometry x="270" y="310" width="140" height="70" as="geometry" />
        </mxCell>
        <mxCell id="tATamW5z8YuREtFlP0gz-27" style="rounded=0;orthogonalLoop=1;jettySize=auto;html=1;entryX=0;entryY=0.5;entryDx=0;entryDy=0;endArrow=classic;endFill=1;exitX=1;exitY=0.5;exitDx=0;exitDy=0;" edge="1" parent="1" source="tATamW5z8YuREtFlP0gz-8" target="tATamW5z8YuREtFlP0gz-11">
          <mxGeometry relative="1" as="geometry">
            <mxPoint x="750" y="420" as="sourcePoint" />
          </mxGeometry>
        </mxCell>
        <mxCell id="tATamW5z8YuREtFlP0gz-8" value="Quản lý phân quyền" style="ellipse;whiteSpace=wrap;html=1;" vertex="1" parent="1">
          <mxGeometry x="270" y="410" width="140" height="70" as="geometry" />
        </mxCell>
        <mxCell id="tATamW5z8YuREtFlP0gz-9" value="Tìm kiếm" style="ellipse;whiteSpace=wrap;html=1;" vertex="1" parent="1">
          <mxGeometry x="260" y="540" width="140" height="70" as="geometry" />
        </mxCell>
        <mxCell id="tATamW5z8YuREtFlP0gz-11" value="Đăng nhập" style="ellipse;whiteSpace=wrap;html=1;" vertex="1" parent="1">
          <mxGeometry x="610" y="120" width="140" height="70" as="geometry" />
        </mxCell>
        <mxCell id="tATamW5z8YuREtFlP0gz-17" style="rounded=0;orthogonalLoop=1;jettySize=auto;html=1;entryX=1;entryY=0.3333333333333333;entryDx=0;entryDy=0;entryPerimeter=0;endArrow=none;endFill=0;exitX=0;exitY=0.5;exitDx=0;exitDy=0;" edge="1" parent="1" source="tATamW5z8YuREtFlP0gz-4" target="tATamW5z8YuREtFlP0gz-1">
          <mxGeometry relative="1" as="geometry" />
        </mxCell>
        <mxCell id="tATamW5z8YuREtFlP0gz-18" style="rounded=0;orthogonalLoop=1;jettySize=auto;html=1;entryX=1;entryY=0.3333333333333333;entryDx=0;entryDy=0;entryPerimeter=0;endArrow=none;endFill=0;exitX=0;exitY=0.5;exitDx=0;exitDy=0;" edge="1" parent="1" source="tATamW5z8YuREtFlP0gz-5" target="tATamW5z8YuREtFlP0gz-1">
          <mxGeometry relative="1" as="geometry" />
        </mxCell>
        <mxCell id="tATamW5z8YuREtFlP0gz-19" style="rounded=0;orthogonalLoop=1;jettySize=auto;html=1;entryX=1;entryY=0.3333333333333333;entryDx=0;entryDy=0;entryPerimeter=0;endArrow=none;endFill=0;exitX=0;exitY=0.5;exitDx=0;exitDy=0;" edge="1" parent="1" source="tATamW5z8YuREtFlP0gz-6" target="tATamW5z8YuREtFlP0gz-1">
          <mxGeometry relative="1" as="geometry" />
        </mxCell>
        <mxCell id="tATamW5z8YuREtFlP0gz-20" style="rounded=0;orthogonalLoop=1;jettySize=auto;html=1;entryX=1;entryY=0.3333333333333333;entryDx=0;entryDy=0;entryPerimeter=0;endArrow=none;endFill=0;exitX=0;exitY=0.5;exitDx=0;exitDy=0;" edge="1" parent="1" source="tATamW5z8YuREtFlP0gz-7" target="tATamW5z8YuREtFlP0gz-1">
          <mxGeometry relative="1" as="geometry" />
        </mxCell>
        <mxCell id="tATamW5z8YuREtFlP0gz-21" style="rounded=0;orthogonalLoop=1;jettySize=auto;html=1;entryX=1;entryY=0.3333333333333333;entryDx=0;entryDy=0;entryPerimeter=0;endArrow=none;endFill=0;exitX=0;exitY=0.5;exitDx=0;exitDy=0;" edge="1" parent="1" source="tATamW5z8YuREtFlP0gz-8" target="tATamW5z8YuREtFlP0gz-1">
          <mxGeometry relative="1" as="geometry" />
        </mxCell>
        <mxCell id="tATamW5z8YuREtFlP0gz-22" style="rounded=0;orthogonalLoop=1;jettySize=auto;html=1;entryX=1;entryY=0.3333333333333333;entryDx=0;entryDy=0;entryPerimeter=0;endArrow=none;endFill=0;" edge="1" parent="1" source="tATamW5z8YuREtFlP0gz-9" target="tATamW5z8YuREtFlP0gz-2">
          <mxGeometry relative="1" as="geometry" />
        </mxCell>
        <mxCell id="tATamW5z8YuREtFlP0gz-28" value="included" style="text;html=1;align=center;verticalAlign=middle;resizable=0;points=[];autosize=1;strokeColor=none;fillColor=none;" vertex="1" parent="1">
          <mxGeometry x="480" y="80" width="70" height="30" as="geometry" />
        </mxCell>
        <mxCell id="tATamW5z8YuREtFlP0gz-29" value="included" style="text;html=1;align=center;verticalAlign=middle;resizable=0;points=[];autosize=1;strokeColor=none;fillColor=none;" vertex="1" parent="1">
          <mxGeometry x="480" y="160" width="70" height="30" as="geometry" />
        </mxCell>
        <mxCell id="tATamW5z8YuREtFlP0gz-30" value="included" style="text;html=1;align=center;verticalAlign=middle;resizable=0;points=[];autosize=1;strokeColor=none;fillColor=none;" vertex="1" parent="1">
          <mxGeometry x="480" y="120" width="70" height="30" as="geometry" />
        </mxCell>
        <mxCell id="tATamW5z8YuREtFlP0gz-31" value="included" style="text;html=1;align=center;verticalAlign=middle;resizable=0;points=[];autosize=1;strokeColor=none;fillColor=none;" vertex="1" parent="1">
          <mxGeometry x="510" y="250" width="70" height="30" as="geometry" />
        </mxCell>
        <mxCell id="tATamW5z8YuREtFlP0gz-33" value="" style="rounded=0;orthogonalLoop=1;jettySize=auto;html=1;entryX=0;entryY=0.5;entryDx=0;entryDy=0;endArrow=classic;endFill=1;exitX=1;exitY=0.5;exitDx=0;exitDy=0;" edge="1" parent="1" source="tATamW5z8YuREtFlP0gz-7" target="tATamW5z8YuREtFlP0gz-11">
          <mxGeometry relative="1" as="geometry">
            <mxPoint x="420" y="350" as="sourcePoint" />
            <mxPoint x="490" y="220" as="targetPoint" />
          </mxGeometry>
        </mxCell>
        <mxCell id="tATamW5z8YuREtFlP0gz-32" value="included" style="text;html=1;align=center;verticalAlign=middle;resizable=0;points=[];autosize=1;strokeColor=none;fillColor=none;" vertex="1" parent="1">
          <mxGeometry x="480" y="200" width="70" height="30" as="geometry" />
        </mxCell>
        <mxCell id="tATamW5z8YuREtFlP0gz-35" style="rounded=0;orthogonalLoop=1;jettySize=auto;html=1;entryX=1;entryY=0.3333333333333333;entryDx=0;entryDy=0;entryPerimeter=0;endArrow=none;endFill=0;exitX=0;exitY=0;exitDx=0;exitDy=0;" edge="1" parent="1" source="tATamW5z8YuREtFlP0gz-9" target="tATamW5z8YuREtFlP0gz-1">
          <mxGeometry relative="1" as="geometry" />
        </mxCell>
        <mxCell id="tATamW5z8YuREtFlP0gz-36" style="rounded=0;orthogonalLoop=1;jettySize=auto;html=1;entryX=0;entryY=0.3333333333333333;entryDx=0;entryDy=0;entryPerimeter=0;endArrow=none;endFill=0;" edge="1" parent="1" source="tATamW5z8YuREtFlP0gz-11" target="tATamW5z8YuREtFlP0gz-3">
          <mxGeometry relative="1" as="geometry" />
        </mxCell>
        <mxCell id="tATamW5z8YuREtFlP0gz-38" style="rounded=0;orthogonalLoop=1;jettySize=auto;html=1;entryX=0;entryY=0.3333333333333333;entryDx=0;entryDy=0;entryPerimeter=0;endArrow=none;endFill=0;exitX=1;exitY=0.5;exitDx=0;exitDy=0;" edge="1" parent="1" source="tATamW5z8YuREtFlP0gz-9" target="tATamW5z8YuREtFlP0gz-3">
          <mxGeometry relative="1" as="geometry" />
        </mxCell>
      </root>
    </mxGraphModel>
  </diagram>
</mxfile>
